<svg width="262" height="257" viewBox="0 0 262 257" fill="none" xmlns="http://www.w3.org/2000/svg">
<path d="M149.5 25.7975H132.5H129V137.298L143 146.298H162.5L169 137.298L180 135.298L186.5 127.798L190.5 112.798L197.5 104.298V89.2975L188.5 77.2975L194.5 67.2975L192.5 53.2975L188.5 45.2975L180 36.7975L171 32.7975L169 18.7975L155 16.7975L149.5 25.7975Z" fill="#F2A8BF"/>
<path d="M88.5955 33.9458C88.5955 32.7188 88.4499 30.7649 87.5461 29.7706C86.9688 29.1356 87.1888 28.095 87.1888 27.2141C87.1888 25.0908 87.8875 23.5234 88.5955 21.5764C89.1531 20.0429 89.983 18.869 90.7612 17.4682C91.6812 15.8122 93.0446 15.6597 94.8248 15.6597C96.6817 15.6597 98.5386 15.6597 100.396 15.6597C101.43 15.6597 102.645 15.4275 103.51 15.9722C104.209 16.4125 105.068 16.8558 105.788 17.2672C107.328 18.1476 108.836 18.8245 109.449 20.527C109.891 21.7531 111.33 22.347 111.905 23.4966" stroke="#E62798" stroke-width="5" stroke-linecap="round"/>
<path d="M89.6002 19.0758C91.6675 16.5655 93.1481 13.4173 95.7849 11.4398C96.2083 11.1222 96.6862 10.5166 97.0241 10.1225C97.3942 9.6906 97.8855 9.49461 98.3414 9.14005C99.0498 8.58907 99.9674 7.91142 100.764 7.62178C102.111 7.13176 103.252 6.23152 104.671 5.85791C105.307 5.69054 105.933 5.45631 106.569 5.29973C106.975 5.19968 107.51 5.33529 107.886 5.16576C108.453 4.91097 109.394 4.44143 109.985 4.40663C111.407 4.323 112.642 3.50327 114.049 3.39073C115.821 3.24894 117.445 3 119.229 3C121.606 3 123.812 5.12473 125.57 6.50541C126.376 7.13917 128.267 8.2725 128.383 9.4303C128.446 10.0654 128.953 10.6162 128.986 11.2388C129.018 11.8496 128.885 12.4758 129.142 13.0473C129.416 13.6561 129.338 14.3985 129.7 14.9675C130.129 15.6407 130.593 16.6451 130.593 17.4682C130.593 18.1675 130.995 18.7014 130.995 19.3772C130.995 19.9168 130.995 20.4563 130.995 20.9959C130.995 22.2443 130.794 23.4461 130.794 24.6576C130.794 25.532 130.87 26.7992 130.392 27.5155" stroke="#E62798" stroke-width="5" stroke-linecap="round"/>
<path d="M129.589 13.8511C129.735 12.1995 131.096 10.1066 132.201 8.82746C132.732 8.21229 133.009 7.38239 133.563 6.77334C134.773 5.44191 136.607 5.14049 138.207 4.51827C139.128 4.16022 140.162 4.15667 141.11 3.71448C141.861 3.36361 143.123 3.42298 143.945 3.40189C146.116 3.34623 148.218 3 150.409 3C151.252 3 152.091 3.25363 152.887 3.50237C153.469 3.68429 153.704 3.87263 154.216 4.10521C155.72 4.78906 157.203 5.30666 158.592 6.21515C159.192 6.60751 159.87 7.04416 160.534 7.37618C160.767 7.49224 161.034 7.33994 161.238 7.54363C161.911 8.21686 162.46 8.69603 163.325 9.12888C164.378 9.65504 165.967 11.409 166.407 12.4892C166.837 13.5458 168.171 14.2983 168.528 15.5034C168.868 16.6527 169.699 18.1701 170.37 19.1762C171.942 21.5353 171.587 24.7099 171.587 27.4151C171.587 28.4101 170.783 29.3863 170.783 30.4293C170.783 31.5183 170.33 33.6097 169.733 34.504C169.127 35.4138 168.769 36.3873 168.282 37.3619C168.063 37.7991 168.051 38.3154 167.769 38.6681C167.427 39.0951 167.002 39.498 166.764 39.9742" stroke="#E62798" stroke-width="5" stroke-linecap="round"/>
<path d="M169.577 18.272C166.201 18.272 163.02 16.8653 159.619 16.8653C158.258 16.8653 156.892 16.6644 155.5 16.6644C154.981 16.6644 154.611 16.6601 154.182 16.9881C153.31 17.6552 151.83 17.9528 151.202 18.8525C150.431 19.9562 150.084 21.3663 149.281 22.436C148.995 22.818 148.689 23.0746 148.478 23.4966" stroke="#E62798" stroke-width="5" stroke-linecap="round"/>
<path d="M171.386 33.142C172.241 33.142 172.771 33.2206 173.551 33.4993C174.03 33.6704 174.486 33.9458 175.003 33.9458C176.209 33.9458 177.571 34.8141 178.62 35.3525C179.834 35.9761 180.431 37.9378 181.746 38.1769C182.404 38.2966 182.528 38.9353 182.996 39.2821C183.5 39.6553 184.234 39.9948 184.637 40.4654C185.48 41.4485 186.387 42.4272 187.305 43.3457C187.975 44.016 187.886 44.7176 188.377 45.4891C189.563 47.3532 190.3 49.2813 191.48 51.1826C192.158 52.2743 192.298 53.7645 192.965 54.9225C193.367 55.6211 193.49 57.0348 193.49 57.8585C193.49 59.4617 193.892 61.0489 193.892 62.6812C193.892 63.4486 194.316 66.3267 193.802 66.9011C193.428 67.3191 193.289 67.4876 193.289 68.0622C193.289 68.3205 193.412 68.9327 193.188 69.1115C192.962 69.2926 192.756 70.6557 192.675 71.0205C192.532 71.6641 191.94 72.3907 191.726 73.0858C191.561 73.6226 191.235 74.1909 190.877 74.6376C189.892 75.8693 189.185 77.2035 187.417 76.5912C186.728 76.3528 186.197 76.1047 185.564 75.7428C185.037 75.4421 184.341 75.4729 183.8 75.14C183.248 74.8004 182.37 74.7381 181.734 74.7381C180.907 74.7381 180.26 74.4625 179.524 74.1352C177.973 73.446 177.012 72.0592 177.012 70.3061C177.012 69.1619 176.785 66.8201 176.007 65.8964C175.526 65.3253 175.231 64.718 174.679 64.166C174.279 63.7656 173.851 63.4089 173.44 63.0385C173.245 62.8633 172.942 62.9688 172.792 62.7817C172.561 62.4925 171.733 62.6778 171.43 62.4356C171.036 62.12 169.905 61.9832 169.376 61.8775" stroke="#E62798" stroke-width="5" stroke-linecap="round"/>
<path d="M179.022 72.7286C178.25 73.4998 177.612 74.3957 177.235 75.4302C177.062 75.9064 177.234 76.5515 177.113 77.0601C176.806 78.3458 176.75 79.7529 175.896 80.8335C174.887 82.1098 173.7 82.898 172.1 83.189C171.144 83.3628 169.951 83.7807 168.974 83.7807" stroke="#E62798" stroke-width="5" stroke-linecap="round"/>
<path d="M189.069 76.7475C189.378 78.1891 190.169 78.6358 191.268 79.4603C191.811 79.8676 191.921 80.6593 192.485 81.0121C192.861 81.2467 192.629 81.8546 192.987 82.1731C193.297 82.4479 193.53 82.7935 193.814 83.0774C194.356 83.6201 195.228 84.7323 195.499 85.4776C195.801 86.3083 196.596 87.3856 197.062 88.1568C197.499 88.8788 198.858 89.8803 198.915 90.6575C198.95 91.1202 198.915 91.6002 198.915 92.0641C198.915 93.726 199.116 95.3516 199.116 97.0432C199.116 97.448 198.982 98.0166 198.871 98.4051C198.723 98.9225 198.849 99.5808 198.625 100.057C198.255 100.843 197.71 101.997 197.71 102.871C197.71 103.525 197.327 104.285 197.062 104.88C196.875 105.302 196.469 105.515 196.348 105.974C196.23 106.419 196.151 106.882 195.946 107.291C195.31 108.564 194.877 110.303 193.88 111.299C192.567 112.612 191.014 112.95 189.471 113.722" stroke="#E62798" stroke-width="5" stroke-linecap="round"/>
<path d="M178.821 98.6507C180.844 99.4405 182.979 100.457 184.436 102.156C185.374 103.251 186.669 103.72 187.35 105.081C187.864 106.11 188.466 107.588 188.466 108.743C188.466 109.8 188.927 110.653 189.058 111.701C189.184 112.715 189.069 113.805 189.069 114.827C189.069 116.776 188.868 118.777 188.868 120.666C188.868 122.942 188 125.109 186.557 126.873C186.327 127.154 186.083 127.576 186.055 127.944C185.993 128.747 185.485 128.96 185.005 129.44C184.297 130.149 183.901 131.515 183.041 132.053C182.748 132.235 182.757 132.636 182.538 132.812C182.211 133.074 181.854 133.237 181.511 133.504C181.107 133.818 180.543 134.006 180.127 134.33C179.631 134.716 178.995 134.623 178.508 134.933C176.022 136.515 172.418 136.228 169.577 136.228" stroke="#E62798" stroke-width="5" stroke-linecap="round"/>
<path d="M152.095 124.573C152.795 125.15 153.055 125.336 153.099 126.18C153.115 126.48 153.296 126.783 153.602 126.783C154.162 126.783 154.755 127.154 155.31 127.185C156.171 127.233 157.047 127.788 157.822 127.788C159.709 127.788 161.477 128.528 163.415 128.581C164.716 128.616 166.995 128.965 168.17 128.346C168.837 127.996 169.278 127.323 169.823 126.828C170.283 126.41 170.754 125.687 171.296 125.377C172.054 124.944 172.287 124.016 172.904 123.568C174.213 122.616 174.717 120.368 174.991 118.857C175.276 117.295 175.204 115.72 175.204 114.124C175.204 113.387 175.204 112.65 175.204 111.913C175.204 110.946 174.487 110.995 173.897 110.406C173.401 109.91 173.563 109.445 173.35 108.854C173.17 108.353 172.823 107.955 172.591 107.492" stroke="#E62798" stroke-width="5" stroke-linecap="round"/>
<path d="M170.783 127.386C170.783 128.726 170.783 130.065 170.783 131.405C170.783 132.632 170.346 133.571 170.169 134.721C170.015 135.721 169.242 136.712 168.673 137.534C167.951 138.576 167.61 139.706 166.965 140.693C166.489 141.421 165.973 142.149 165.513 142.859C165.123 143.462 163.986 143.828 163.448 144.366C162.053 145.762 158.584 147.079 156.672 147.079C153.319 147.079 150.129 147.682 146.77 147.682C145.765 147.682 144.289 147.942 143.342 147.481C142.421 147.033 141.543 146.159 140.674 145.594C140.153 145.255 139.965 144.72 139.39 144.31C137.619 143.049 136.02 142.059 133.942 141.251C132.093 140.532 130.85 140.358 129.979 138.617C129.59 137.839 129.388 137.332 129.388 136.496C129.388 135.231 129.388 133.965 129.388 132.7C129.388 131.337 129.589 130.013 129.589 128.67C129.589 127.312 129.615 124.936 130.392 123.769" stroke="#E62798" stroke-width="5" stroke-linecap="round"/>
<path d="M68.0989 120.152C68.0989 121.719 68.0989 123.285 68.0989 124.852C68.0989 125.309 68.6458 125.676 68.7464 126.225C68.8974 127.049 69.2425 128.351 69.7846 128.893C70.8251 129.934 71.7027 130.55 73.0109 131.204C74.2457 131.822 74.9971 132.297 75.9916 133.292C76.6607 133.961 77.9664 134.194 78.5481 134.922C78.8476 135.296 80.06 134.95 80.5129 135.067C80.9106 135.169 81.363 135.384 81.7633 135.424C82.2381 135.472 82.6273 135.717 83.0694 135.815C83.5484 135.921 84.0898 135.779 84.5765 135.848C85.4732 135.976 86.0777 136.228 87.0549 136.228C87.8363 136.228 88.6178 136.228 89.3993 136.228" stroke="#E62798" stroke-width="5" stroke-linecap="round"/>
<path d="M88.3945 123.97C88.9909 124.874 89.4091 126.056 90.404 126.582C90.7958 126.79 92.0198 126.844 92.2125 127.085C92.4527 127.385 93.6518 127.347 93.9317 127.386C94.5518 127.473 95.3251 127.771 95.9189 127.788C96.5241 127.806 97.1328 127.788 97.7385 127.788C99.0068 127.788 101.118 127.175 102.282 126.627C103.487 126.06 105.059 126.001 105.877 124.774" stroke="#E62798" stroke-width="5" stroke-linecap="round"/>
<path d="M88.5955 123.769C88.5955 125.563 88.5955 127.356 88.5955 129.15C88.5955 129.88 88.9974 130.429 88.9974 131.182C88.9974 131.643 88.8691 132.3 89.0978 132.711C89.5769 133.574 89.1611 135.307 89.1983 136.272C89.2398 137.353 90.3957 138.15 90.6161 139.142C90.8235 140.075 92.5743 140.76 93.2954 141.24C94.2706 141.89 95.211 142.973 96.2761 143.417C96.966 143.705 98.032 144.436 98.5423 144.947C99.418 145.822 100.894 146.369 101.858 147.28C103.128 148.479 105.736 149.289 107.496 149.289C107.998 149.289 108.811 149.448 109.293 149.245C109.676 149.083 110.285 148.71 110.7 148.687C111.221 148.658 111.701 148.584 112.207 148.452C112.739 148.313 113.01 147.883 113.602 147.883C114.067 147.883 114.445 147.689 114.797 147.392C116.85 145.654 119.097 144.098 121.819 143.507C122.653 143.325 123.551 142.297 124.264 141.743C126.046 140.356 127.988 140.085 130.191 139.644" stroke="#E62798" stroke-width="5" stroke-linecap="round"/>
<path d="M128.986 85.9911H130.191" stroke="#E62798" stroke-width="5" stroke-linecap="round"/>
<path d="M128.383 98.0479C129.426 99.83 129.187 101.56 129.187 103.574C129.187 105.277 128.007 106.74 128.785 108.296" stroke="#E62798" stroke-width="5" stroke-linecap="round"/>
<path d="M144.861 89.8091C145.896 89.8091 147.245 89.7846 148.187 90.2556C149.301 90.8125 150.154 91.793 151.28 92.3991C151.854 92.7082 152.034 93.0349 152.497 93.3815C152.898 93.6826 152.684 94.6291 152.898 95.1118C153.26 95.9248 153.501 97.146 153.501 98.0926C153.501 100.409 153.321 102.351 152.195 104.378C151.159 106.243 148.941 108.497 146.669 108.497" stroke="#E62798" stroke-width="5" stroke-linecap="round"/>
<path d="M141.445 38.3667C146.484 38.3667 151.338 40.0897 155.332 43.1001C156.003 43.6057 156.646 44.3628 156.716 45.2435C156.789 46.1472 157.612 46.929 157.71 47.8112C157.911 49.6177 158.475 51.2706 158.525 53.1251C158.582 55.2234 158.303 57.4721 157.107 59.2651C156.134 60.725 154.943 62.4456 153.702 63.686C152.163 65.2253 150.527 66.8098 148.545 67.7161C146.579 68.6147 144.642 69.2514 142.65 69.9153" stroke="#E62798" stroke-width="5" stroke-linecap="round"/>
<path d="M128.785 43.3903C130.105 44.5909 129.79 46.4809 129.79 48.1238C129.79 48.9412 129.991 49.7387 129.991 50.5351C129.991 51.8971 129.991 53.2591 129.991 54.621C129.991 56.69 129.991 58.7591 129.991 60.8281C129.991 65.0688 129.388 69.3145 129.388 73.5324" stroke="#E62798" stroke-width="5" stroke-linecap="round"/>
<path d="M69.028 49.8216C69.0105 49.8473 69 50.1606 69 50.5202V51.1725L69.2732 51.2085C69.7321 51.265 69.9879 51.3369 70.3101 51.4961C71.2034 51.9327 71.7709 52.8573 72.0371 54.3006L72.1317 54.804L72.1527 59.0416C72.1773 63.0018 72.1843 63.3305 72.2543 64.0702C72.6992 68.7187 73.9848 72.2166 76.2162 74.8465C78.6333 77.6921 82.1364 79.3922 86.0703 79.6183L86.6903 79.6542L86.6868 84.1281C86.6833 86.5884 86.6728 90.4613 86.6588 92.7368L86.6343 96.8716L86.5257 97.3493C86.2594 98.5102 85.748 99.3269 84.9353 99.897C84.571 100.154 84.1331 100.354 83.6777 100.472C83.2258 100.585 82.4061 100.657 82.0033 100.621L81.6424 100.585L81.653 101.191L81.6635 101.798L82.0313 101.787C87.2508 101.659 90.7538 101.659 95.9734 101.787L96.3412 101.798L96.3517 101.191L96.3622 100.585L96.0014 100.621C95.595 100.657 94.7788 100.585 94.3164 100.467C93.854 100.344 93.4337 100.154 93.0693 99.897C92.2566 99.3269 91.7592 98.5359 91.4825 97.3596L91.3669 96.8716L91.3458 92.557C91.3318 90.184 91.3213 86.3111 91.3178 83.9483L91.3143 79.6542L91.9379 79.6183C95.4269 79.4179 98.6076 78.0465 100.965 75.7351C101.862 74.8516 102.825 73.5675 103.431 72.4477C104.699 70.1004 105.421 67.4859 105.754 64.0496C105.82 63.3357 105.827 62.971 105.852 59.0416L105.873 54.804L105.968 54.3006C106.258 52.7237 106.91 51.7683 107.971 51.3677C108.146 51.3009 108.784 51.1828 108.956 51.1828C108.998 51.1828 109.005 51.0646 108.998 50.4996L108.987 49.8216L108.392 49.8267C106.241 49.837 104.293 50.9414 102.962 52.8983C102.198 54.0232 101.697 55.2663 101.315 56.9613C101.021 58.266 100.892 59.5141 100.843 61.4608C100.825 62.1851 100.783 63.1096 100.755 63.5154C100.489 67.0545 99.7496 70.0798 98.5901 72.345C98.2959 72.9203 97.6758 73.8705 97.3045 74.3123C96.2326 75.581 94.8944 76.3874 93.3636 76.6853C92.8942 76.7778 91.6436 76.8497 91.4439 76.7932L91.3143 76.7572V67.7581C91.3178 58.0502 91.3388 56.2165 91.4509 55.4871C91.7032 53.864 92.4108 52.7083 93.4792 52.1792C94.1903 51.8248 94.9645 51.6964 95.7912 51.794C96.0749 51.8248 96.3412 51.8659 96.3867 51.8813C96.4638 51.9121 96.4638 51.9121 96.4638 51.2393V50.5664H89.0023H81.5409V51.2393C81.5409 51.9121 81.5409 51.9121 81.6214 51.8813C81.6635 51.8659 81.9297 51.8248 82.2134 51.794C83.0402 51.6964 83.8143 51.8248 84.5254 52.1792C85.5413 52.6826 86.2594 53.7972 86.5117 55.2509C86.6693 56.1446 86.6658 55.934 86.6798 66.5768L86.6973 76.7572L86.5642 76.7932C86.361 76.8497 85.114 76.7778 84.641 76.6853C83.1102 76.3874 81.7721 75.581 80.7001 74.3123C80.3288 73.8705 79.7088 72.9203 79.4145 72.345C78.7034 70.9582 78.1359 69.2323 77.7611 67.3318C77.3933 65.4724 77.2216 63.7774 77.1621 61.4608C77.113 59.4782 76.9834 58.2711 76.6716 56.8842C75.8029 53.0062 73.7676 50.5972 70.8111 49.9449C70.3276 49.837 69.0736 49.7548 69.028 49.8216Z" fill="#EDE7F6"/>
<path d="M66.7576 179.047C66.7576 179.176 66.74 179.311 66.7048 179.451C66.6814 179.592 66.617 179.709 66.5115 179.803C65.9841 180.201 65.4099 180.57 64.7888 180.91C64.1795 181.238 63.5173 181.525 62.8025 181.771C62.0877 182.018 61.3142 182.205 60.4822 182.334C59.6619 182.475 58.7771 182.545 57.8279 182.545C55.6951 182.545 53.7498 182.234 51.992 181.613C50.2341 180.98 48.7224 180.09 47.4568 178.941C46.2029 177.793 45.2302 176.416 44.5388 174.811C43.8474 173.193 43.5017 171.4 43.5017 169.432C43.5017 168.318 43.6423 167.223 43.9236 166.145C44.2166 165.066 44.6384 164.041 45.1892 163.068C45.74 162.096 46.4197 161.205 47.2283 160.396C48.0369 159.576 48.9568 158.867 49.988 158.27C51.031 157.672 52.1736 157.209 53.4158 156.881C54.6697 156.541 56.0232 156.371 57.4763 156.371C58.0388 156.371 58.613 156.4 59.199 156.459C59.7849 156.506 60.365 156.582 60.9392 156.688C61.5134 156.781 62.0642 156.898 62.5916 157.039C63.1306 157.18 63.6404 157.338 64.1209 157.514L65.3162 160.766L65.1755 160.836C64.7185 160.426 64.1912 160.045 63.5935 159.693C62.9959 159.342 62.3572 159.037 61.6775 158.779C60.9978 158.521 60.283 158.322 59.533 158.182C58.7947 158.029 58.0447 157.953 57.283 157.953C55.8064 157.953 54.4529 158.188 53.2224 158.656C51.992 159.113 50.9314 159.781 50.0408 160.66C49.1619 161.539 48.4763 162.617 47.9841 163.895C47.492 165.172 47.2459 166.625 47.2459 168.254C47.2459 170.047 47.4802 171.711 47.949 173.246C48.4177 174.781 49.115 176.111 50.0408 177.236C50.9666 178.361 52.1209 179.246 53.5037 179.891C54.8982 180.523 56.5212 180.84 58.3728 180.84C59.1931 180.84 59.9255 180.775 60.5701 180.646C61.2146 180.518 61.7595 180.359 62.2048 180.172C62.6502 179.973 62.9841 179.762 63.2068 179.539C63.4412 179.305 63.5584 179.094 63.5584 178.906V178.221C63.5584 177.4 63.5466 176.691 63.5232 176.094C63.4998 175.496 63.4646 174.98 63.4177 174.547C63.3709 174.102 63.3181 173.721 63.2595 173.404C63.2009 173.088 63.1306 172.795 63.0486 172.525V172.455H67.2673V172.525C67.197 172.771 67.1267 173.064 67.0564 173.404C66.9978 173.732 66.9451 174.125 66.8982 174.582C66.8513 175.039 66.8162 175.578 66.7927 176.199C66.7693 176.809 66.7576 177.518 66.7576 178.326V179.047ZM82.5702 180.629C83.66 180.629 84.6619 180.588 85.576 180.506C86.5018 180.412 87.3104 180.312 88.0018 180.207C88.8104 180.078 89.5428 179.932 90.1991 179.768L89.7948 182.105C89.6307 182.094 89.3494 182.076 88.951 182.053C88.5643 182.041 88.1541 182.029 87.7205 182.018C87.2869 182.018 86.8827 182.012 86.5077 182C86.1327 182 85.8748 182 85.7342 182H79.0018V181.93C79.0838 181.684 79.1541 181.367 79.2127 180.98C79.283 180.594 79.3358 180.119 79.3709 179.557C79.4178 178.982 79.453 178.303 79.4764 177.518C79.4998 176.732 79.5116 175.812 79.5116 174.758V170.328C79.5116 169.273 79.4998 168.359 79.4764 167.586C79.453 166.801 79.4178 166.127 79.3709 165.564C79.3358 164.99 79.283 164.51 79.2127 164.123C79.1541 163.736 79.0838 163.42 79.0018 163.174V163.104H83.0623V163.174C82.9803 163.42 82.91 163.736 82.8514 164.123C82.7928 164.51 82.7401 164.99 82.6932 165.564C82.658 166.127 82.6287 166.801 82.6053 167.586C82.5819 168.359 82.5702 169.273 82.5702 170.328V180.629ZM112.639 176.059C112.322 176.059 111.924 176.059 111.443 176.059C110.975 176.059 110.459 176.059 109.896 176.059C109.334 176.059 108.754 176.059 108.156 176.059C107.559 176.059 106.99 176.064 106.451 176.076C105.912 176.076 105.42 176.082 104.975 176.094C104.529 176.094 104.184 176.094 103.937 176.094L103.287 177.465C103.006 178.027 102.766 178.52 102.566 178.941C102.367 179.352 102.203 179.715 102.074 180.031C101.945 180.348 101.851 180.623 101.793 180.857C101.734 181.08 101.705 181.291 101.705 181.49C101.705 181.619 101.711 181.719 101.723 181.789C101.734 181.848 101.752 181.895 101.775 181.93V182H98.6816V181.93C98.7636 181.848 98.8925 181.672 99.0683 181.402C99.2441 181.121 99.4433 180.781 99.6659 180.383C99.9003 179.984 100.146 179.533 100.404 179.029C100.674 178.525 100.937 178.004 101.195 177.465L108.367 162.664H109.685L116.717 177.465C116.986 178.027 117.256 178.566 117.525 179.082C117.807 179.598 118.064 180.061 118.299 180.471C118.533 180.869 118.738 181.203 118.914 181.473C119.09 181.73 119.207 181.883 119.266 181.93V182H114.766C114.789 181.906 114.801 181.824 114.801 181.754C114.801 181.672 114.801 181.584 114.801 181.49C114.801 181.232 114.742 180.922 114.625 180.559C114.519 180.195 114.385 179.826 114.221 179.451C114.068 179.064 113.904 178.695 113.728 178.344C113.564 177.992 113.43 177.699 113.324 177.465L112.639 176.059ZM104.623 174.688H105.695C106.187 174.688 106.709 174.688 107.26 174.688C107.822 174.676 108.385 174.67 108.947 174.67C109.51 174.67 110.055 174.67 110.582 174.67C111.109 174.658 111.584 174.652 112.006 174.652L108.367 166.883L104.623 174.688ZM143.621 170.258C143.621 169.215 143.615 168.307 143.604 167.533C143.592 166.76 143.568 166.092 143.533 165.529C143.498 164.967 143.457 164.498 143.41 164.123C143.363 163.736 143.305 163.42 143.234 163.174V163.104H145.818V163.174C145.748 163.42 145.689 163.736 145.643 164.123C145.596 164.51 145.555 164.99 145.52 165.564C145.484 166.127 145.461 166.801 145.449 167.586C145.438 168.359 145.432 169.273 145.432 170.328V175.373C145.432 176.639 145.232 177.717 144.834 178.607C144.447 179.498 143.908 180.23 143.217 180.805C142.525 181.367 141.699 181.777 140.738 182.035C139.789 182.305 138.746 182.439 137.609 182.439C136.461 182.439 135.395 182.311 134.41 182.053C133.426 181.807 132.57 181.408 131.844 180.857C131.129 180.307 130.561 179.592 130.139 178.713C129.729 177.834 129.523 176.768 129.523 175.514V170.328C129.523 169.273 129.512 168.359 129.488 167.586C129.465 166.801 129.43 166.127 129.383 165.564C129.336 164.99 129.283 164.51 129.225 164.123C129.166 163.736 129.096 163.42 129.014 163.174V163.104H133.074V163.174C132.992 163.42 132.922 163.736 132.863 164.123C132.805 164.498 132.752 164.967 132.705 165.529C132.67 166.092 132.641 166.76 132.617 167.533C132.594 168.307 132.582 169.215 132.582 170.258V175.514C132.582 176.557 132.74 177.418 133.057 178.098C133.373 178.766 133.789 179.299 134.305 179.697C134.82 180.096 135.406 180.377 136.062 180.541C136.719 180.693 137.393 180.77 138.084 180.77C138.787 180.77 139.467 180.693 140.123 180.541C140.791 180.377 141.383 180.096 141.898 179.697C142.426 179.299 142.842 178.766 143.146 178.098C143.463 177.418 143.621 176.557 143.621 175.514V170.258ZM174.182 178.08L172.811 181.35C172.471 181.502 172.084 181.643 171.65 181.771C171.229 181.889 170.789 181.988 170.332 182.07C169.875 182.152 169.406 182.211 168.926 182.246C168.457 182.293 168.012 182.316 167.59 182.316C166.113 182.316 164.742 182.1 163.477 181.666C162.223 181.232 161.139 180.6 160.225 179.768C159.311 178.924 158.596 177.893 158.08 176.674C157.565 175.455 157.307 174.061 157.307 172.49C157.307 171.107 157.576 169.824 158.115 168.641C158.654 167.457 159.399 166.432 160.348 165.564C161.297 164.686 162.416 164 163.705 163.508C165.006 163.016 166.412 162.77 167.924 162.77C168.264 162.77 168.621 162.787 168.996 162.822C169.383 162.846 169.764 162.887 170.139 162.945C170.514 163.004 170.877 163.074 171.229 163.156C171.58 163.227 171.908 163.303 172.213 163.385L173.531 166.549L173.32 166.672C173.004 166.285 172.623 165.928 172.178 165.6C171.744 165.271 171.264 164.996 170.736 164.773C170.221 164.539 169.676 164.357 169.102 164.229C168.527 164.1 167.941 164.035 167.344 164.035C166.371 164.035 165.481 164.205 164.672 164.545C163.875 164.885 163.19 165.383 162.615 166.039C162.053 166.684 161.613 167.475 161.297 168.412C160.981 169.35 160.822 170.41 160.822 171.594C160.822 172.93 160.975 174.178 161.279 175.338C161.584 176.486 162.041 177.488 162.65 178.344C163.26 179.188 164.022 179.855 164.936 180.348C165.85 180.828 166.916 181.068 168.135 181.068C168.721 181.068 169.295 180.998 169.857 180.857C170.432 180.705 170.971 180.494 171.475 180.225C171.99 179.955 172.459 179.633 172.881 179.258C173.303 178.871 173.666 178.443 173.971 177.975L174.182 178.08ZM185.617 170.328C185.617 169.273 185.606 168.359 185.582 167.586C185.559 166.801 185.524 166.127 185.477 165.564C185.442 164.99 185.389 164.51 185.319 164.123C185.26 163.736 185.19 163.42 185.108 163.174V163.104H189.186V163.174C189.104 163.42 189.027 163.736 188.957 164.123C188.899 164.51 188.846 164.99 188.799 165.564C188.764 166.127 188.735 166.801 188.711 167.586C188.688 168.359 188.676 169.273 188.676 170.328V174.758C188.676 175.812 188.688 176.732 188.711 177.518C188.735 178.303 188.764 178.982 188.799 179.557C188.846 180.119 188.899 180.594 188.957 180.98C189.027 181.367 189.104 181.684 189.186 181.93V182H185.108V181.93C185.19 181.684 185.26 181.367 185.319 180.98C185.389 180.594 185.442 180.119 185.477 179.557C185.524 178.982 185.559 178.303 185.582 177.518C185.606 176.732 185.617 175.812 185.617 174.758V170.328ZM213.471 176.059C213.155 176.059 212.756 176.059 212.276 176.059C211.807 176.059 211.291 176.059 210.729 176.059C210.166 176.059 209.586 176.059 208.989 176.059C208.391 176.059 207.823 176.064 207.283 176.076C206.744 176.076 206.252 176.082 205.807 176.094C205.362 176.094 205.016 176.094 204.77 176.094L204.119 177.465C203.838 178.027 203.598 178.52 203.399 178.941C203.199 179.352 203.035 179.715 202.906 180.031C202.778 180.348 202.684 180.623 202.625 180.857C202.567 181.08 202.537 181.291 202.537 181.49C202.537 181.619 202.543 181.719 202.555 181.789C202.567 181.848 202.584 181.895 202.608 181.93V182H199.514V181.93C199.596 181.848 199.725 181.672 199.901 181.402C200.076 181.121 200.276 180.781 200.498 180.383C200.733 179.984 200.979 179.533 201.237 179.029C201.506 178.525 201.77 178.004 202.028 177.465L209.199 162.664H210.518L217.549 177.465C217.819 178.027 218.088 178.566 218.358 179.082C218.639 179.598 218.897 180.061 219.131 180.471C219.365 180.869 219.571 181.203 219.746 181.473C219.922 181.73 220.039 181.883 220.098 181.93V182H215.598C215.621 181.906 215.633 181.824 215.633 181.754C215.633 181.672 215.633 181.584 215.633 181.49C215.633 181.232 215.574 180.922 215.457 180.559C215.352 180.195 215.217 179.826 215.053 179.451C214.901 179.064 214.737 178.695 214.561 178.344C214.397 177.992 214.262 177.699 214.156 177.465L213.471 176.059ZM205.455 174.688H206.528C207.02 174.688 207.541 174.688 208.092 174.688C208.655 174.676 209.217 174.67 209.78 174.67C210.342 174.67 210.887 174.67 211.414 174.67C211.942 174.658 212.416 174.652 212.838 174.652L209.199 166.883L205.455 174.688ZM26.5592 190.66L26.401 190.73C25.487 189.887 24.3854 189.213 23.0963 188.709C21.819 188.205 20.4127 187.953 18.8776 187.953C17.401 187.953 16.0475 188.188 14.817 188.656C13.5866 189.113 12.526 189.781 11.6354 190.66C10.7565 191.539 10.0709 192.617 9.57875 193.895C9.08656 195.172 8.84047 196.625 8.84047 198.254C8.84047 200.047 9.07484 201.723 9.54359 203.281C10.0123 204.828 10.7096 206.17 11.6354 207.307C12.5612 208.443 13.7155 209.34 15.0983 209.996C16.4928 210.641 18.1159 210.963 19.9674 210.963C20.6354 210.963 21.3034 210.893 21.9713 210.752C22.6393 210.611 23.278 210.406 23.8873 210.137C24.5084 209.855 25.0885 209.521 25.6276 209.135C26.1784 208.736 26.6764 208.285 27.1217 207.781L27.3151 207.904L25.9088 211.49C25.0299 211.83 24.0573 212.088 22.9909 212.264C21.9362 212.451 20.8698 212.545 19.7916 212.545C17.6237 212.545 15.6373 212.234 13.8327 211.613C12.0397 210.98 10.4928 210.09 9.19203 208.941C7.90297 207.793 6.89516 206.416 6.16859 204.811C5.45375 203.193 5.09633 201.4 5.09633 199.432C5.09633 198.318 5.23695 197.223 5.5182 196.145C5.81117 195.066 6.23305 194.041 6.78383 193.068C7.33461 192.096 8.0143 191.205 8.82289 190.396C9.63148 189.576 10.5514 188.867 11.5827 188.27C12.6256 187.672 13.7682 187.209 15.0104 186.881C16.2643 186.541 17.6178 186.371 19.0709 186.371C21.3327 186.371 23.4303 186.717 25.3639 187.408L26.5592 190.66ZM49.7195 206.059C49.403 206.059 49.0046 206.059 48.5241 206.059C48.0554 206.059 47.5398 206.059 46.9773 206.059C46.4148 206.059 45.8347 206.059 45.237 206.059C44.6394 206.059 44.071 206.064 43.532 206.076C42.9929 206.076 42.5007 206.082 42.0554 206.094C41.6101 206.094 41.2644 206.094 41.0183 206.094L40.3679 207.465C40.0866 208.027 39.8464 208.52 39.6472 208.941C39.448 209.352 39.2839 209.715 39.155 210.031C39.0261 210.348 38.9323 210.623 38.8737 210.857C38.8152 211.08 38.7859 211.291 38.7859 211.49C38.7859 211.619 38.7917 211.719 38.8034 211.789C38.8152 211.848 38.8327 211.895 38.8562 211.93V212H35.7624V211.93C35.8445 211.848 35.9734 211.672 36.1491 211.402C36.3249 211.121 36.5241 210.781 36.7468 210.383C36.9812 209.984 37.2273 209.533 37.4851 209.029C37.7546 208.525 38.0183 208.004 38.2761 207.465L45.448 192.664H46.7663L53.7976 207.465C54.0671 208.027 54.3366 208.566 54.6062 209.082C54.8874 209.598 55.1452 210.061 55.3796 210.471C55.614 210.869 55.8191 211.203 55.9948 211.473C56.1706 211.73 56.2878 211.883 56.3464 211.93V212H51.8464C51.8698 211.906 51.8816 211.824 51.8816 211.754C51.8816 211.672 51.8816 211.584 51.8816 211.49C51.8816 211.232 51.823 210.922 51.7058 210.559C51.6003 210.195 51.4655 209.826 51.3015 209.451C51.1491 209.064 50.9851 208.695 50.8093 208.344C50.6452 207.992 50.5105 207.699 50.405 207.465L49.7195 206.059ZM41.7038 204.688H42.7761C43.2683 204.688 43.7898 204.688 44.3405 204.688C44.903 204.676 45.4655 204.67 46.028 204.67C46.5905 204.67 47.1355 204.67 47.6628 204.67C48.1902 204.658 48.6648 204.652 49.0866 204.652L45.448 196.883L41.7038 204.688ZM67.659 193.104V193.174C67.6355 193.232 67.618 193.326 67.6063 193.455C67.5945 193.584 67.5887 193.695 67.5887 193.789C67.5887 194.164 67.6414 194.586 67.7469 195.055C67.8641 195.512 68.075 196.086 68.3797 196.777L73.0555 207.359L77.7664 196.918C77.8719 196.695 77.9773 196.461 78.0828 196.215C78.1883 195.957 78.2879 195.693 78.3816 195.424C78.4754 195.154 78.5516 194.885 78.6102 194.615C78.6688 194.334 78.698 194.059 78.698 193.789C78.698 193.637 78.6863 193.508 78.6629 193.402C78.6395 193.285 78.616 193.209 78.5926 193.174V193.104H81.9148V193.174C81.6922 193.408 81.4051 193.824 81.0535 194.422C80.702 195.008 80.3387 195.758 79.9637 196.672L72.95 212.246H71.825L65.3563 197.568C65.1219 197.029 64.8699 196.514 64.6004 196.021C64.3426 195.518 64.0965 195.072 63.8621 194.686C63.6395 194.287 63.4402 193.959 63.2645 193.701C63.0887 193.432 62.9656 193.256 62.8953 193.174V193.104H67.659ZM102.403 206.059C102.087 206.059 101.688 206.059 101.208 206.059C100.739 206.059 100.224 206.059 99.661 206.059C99.0985 206.059 98.5184 206.059 97.9208 206.059C97.3231 206.059 96.7548 206.064 96.2157 206.076C95.6766 206.076 95.1845 206.082 94.7391 206.094C94.2938 206.094 93.9481 206.094 93.702 206.094L93.0516 207.465C92.7704 208.027 92.5302 208.52 92.3309 208.941C92.1317 209.352 91.9677 209.715 91.8388 210.031C91.7098 210.348 91.6161 210.623 91.5575 210.857C91.4989 211.08 91.4696 211.291 91.4696 211.49C91.4696 211.619 91.4755 211.719 91.4872 211.789C91.4989 211.848 91.5165 211.895 91.5399 211.93V212H88.4462V211.93C88.5282 211.848 88.6571 211.672 88.8329 211.402C89.0087 211.121 89.2079 210.781 89.4305 210.383C89.6649 209.984 89.911 209.533 90.1688 209.029C90.4384 208.525 90.702 208.004 90.9598 207.465L98.1317 192.664H99.4501L106.481 207.465C106.751 208.027 107.02 208.566 107.29 209.082C107.571 209.598 107.829 210.061 108.063 210.471C108.298 210.869 108.503 211.203 108.679 211.473C108.854 211.73 108.972 211.883 109.03 211.93V212H104.53C104.554 211.906 104.565 211.824 104.565 211.754C104.565 211.672 104.565 211.584 104.565 211.49C104.565 211.232 104.507 210.922 104.39 210.559C104.284 210.195 104.149 209.826 103.985 209.451C103.833 209.064 103.669 208.695 103.493 208.344C103.329 207.992 103.194 207.699 103.089 207.465L102.403 206.059ZM94.3876 204.688H95.4598C95.952 204.688 96.4735 204.688 97.0243 204.688C97.5868 204.676 98.1493 204.67 98.7118 204.67C99.2743 204.67 99.8192 204.67 100.347 204.67C100.874 204.658 101.349 204.652 101.77 204.652L98.1317 196.883L94.3876 204.688ZM122.663 210.629C123.753 210.629 124.755 210.588 125.669 210.506C126.595 210.412 127.403 210.312 128.095 210.207C128.903 210.078 129.636 209.932 130.292 209.768L129.888 212.105C129.724 212.094 129.442 212.076 129.044 212.053C128.657 212.041 128.247 212.029 127.813 212.018C127.38 212.018 126.976 212.012 126.601 212C126.226 212 125.968 212 125.827 212H119.095V211.93C119.177 211.684 119.247 211.367 119.306 210.98C119.376 210.594 119.429 210.119 119.464 209.557C119.511 208.982 119.546 208.303 119.569 207.518C119.593 206.732 119.604 205.812 119.604 204.758V200.328C119.604 199.273 119.593 198.359 119.569 197.586C119.546 196.801 119.511 196.127 119.464 195.564C119.429 194.99 119.376 194.51 119.306 194.123C119.247 193.736 119.177 193.42 119.095 193.174V193.104H123.155V193.174C123.073 193.42 123.003 193.736 122.944 194.123C122.886 194.51 122.833 194.99 122.786 195.564C122.751 196.127 122.722 196.801 122.698 197.586C122.675 198.359 122.663 199.273 122.663 200.328V210.629ZM157.126 208.08L155.755 211.35C155.415 211.502 155.028 211.643 154.595 211.771C154.173 211.889 153.733 211.988 153.276 212.07C152.819 212.152 152.351 212.211 151.87 212.246C151.401 212.293 150.956 212.316 150.534 212.316C149.058 212.316 147.687 212.1 146.421 211.666C145.167 211.232 144.083 210.6 143.169 209.768C142.255 208.924 141.54 207.893 141.024 206.674C140.509 205.455 140.251 204.061 140.251 202.49C140.251 201.107 140.521 199.824 141.06 198.641C141.599 197.457 142.343 196.432 143.292 195.564C144.241 194.686 145.36 194 146.649 193.508C147.95 193.016 149.356 192.77 150.868 192.77C151.208 192.77 151.565 192.787 151.94 192.822C152.327 192.846 152.708 192.887 153.083 192.945C153.458 193.004 153.821 193.074 154.173 193.156C154.524 193.227 154.853 193.303 155.157 193.385L156.476 196.549L156.265 196.672C155.948 196.285 155.567 195.928 155.122 195.6C154.689 195.271 154.208 194.996 153.681 194.773C153.165 194.539 152.62 194.357 152.046 194.229C151.472 194.1 150.886 194.035 150.288 194.035C149.315 194.035 148.425 194.205 147.616 194.545C146.819 194.885 146.134 195.383 145.56 196.039C144.997 196.684 144.558 197.475 144.241 198.412C143.925 199.35 143.767 200.41 143.767 201.594C143.767 202.93 143.919 204.178 144.224 205.338C144.528 206.486 144.985 207.488 145.595 208.344C146.204 209.188 146.966 209.855 147.88 210.348C148.794 210.828 149.86 211.068 151.079 211.068C151.665 211.068 152.239 210.998 152.802 210.857C153.376 210.705 153.915 210.494 154.419 210.225C154.935 209.955 155.403 209.633 155.825 209.258C156.247 208.871 156.61 208.443 156.915 207.975L157.126 208.08ZM179.741 206.059C179.425 206.059 179.026 206.059 178.546 206.059C178.077 206.059 177.562 206.059 176.999 206.059C176.437 206.059 175.857 206.059 175.259 206.059C174.661 206.059 174.093 206.064 173.554 206.076C173.015 206.076 172.523 206.082 172.077 206.094C171.632 206.094 171.286 206.094 171.04 206.094L170.39 207.465C170.109 208.027 169.868 208.52 169.669 208.941C169.47 209.352 169.306 209.715 169.177 210.031C169.048 210.348 168.954 210.623 168.896 210.857C168.837 211.08 168.808 211.291 168.808 211.49C168.808 211.619 168.814 211.719 168.825 211.789C168.837 211.848 168.855 211.895 168.878 211.93V212H165.784V211.93C165.866 211.848 165.995 211.672 166.171 211.402C166.347 211.121 166.546 210.781 166.769 210.383C167.003 209.984 167.249 209.533 167.507 209.029C167.776 208.525 168.04 208.004 168.298 207.465L175.47 192.664H176.788L183.819 207.465C184.089 208.027 184.359 208.566 184.628 209.082C184.909 209.598 185.167 210.061 185.401 210.471C185.636 210.869 185.841 211.203 186.017 211.473C186.193 211.73 186.31 211.883 186.368 211.93V212H181.868C181.892 211.906 181.903 211.824 181.903 211.754C181.903 211.672 181.903 211.584 181.903 211.49C181.903 211.232 181.845 210.922 181.728 210.559C181.622 210.195 181.487 209.826 181.323 209.451C181.171 209.064 181.007 208.695 180.831 208.344C180.667 207.992 180.532 207.699 180.427 207.465L179.741 206.059ZM171.726 204.688H172.798C173.29 204.688 173.812 204.688 174.362 204.688C174.925 204.676 175.487 204.67 176.05 204.67C176.612 204.67 177.157 204.67 177.685 204.67C178.212 204.658 178.687 204.652 179.109 204.652L175.47 196.883L171.726 204.688ZM213.325 212.246H212.64L198.665 198.5V204.758C198.665 205.812 198.671 206.732 198.683 207.518C198.695 208.303 198.712 208.982 198.736 209.557C198.771 210.119 198.812 210.594 198.859 210.98C198.917 211.367 198.988 211.684 199.07 211.93V212H196.433V211.93C196.515 211.684 196.585 211.367 196.644 210.98C196.702 210.594 196.749 210.119 196.784 209.557C196.82 208.982 196.843 208.303 196.855 207.518C196.866 206.732 196.872 205.812 196.872 204.758V200.328C196.872 199.273 196.866 198.359 196.855 197.586C196.843 196.801 196.82 196.127 196.784 195.564C196.749 194.99 196.702 194.51 196.644 194.123C196.585 193.736 196.515 193.42 196.433 193.174V193.104H197.523L211.515 206.92V200.328C211.515 199.273 211.509 198.359 211.497 197.586C211.486 196.801 211.462 196.127 211.427 195.564C211.404 194.99 211.368 194.51 211.321 194.123C211.275 193.736 211.21 193.42 211.128 193.174V193.104H213.747V193.174C213.665 193.42 213.595 193.736 213.536 194.123C213.489 194.51 213.448 194.99 213.413 195.564C213.378 196.127 213.355 196.801 213.343 197.586C213.331 198.359 213.325 199.273 213.325 200.328V212.246ZM231.124 194.404C230.058 194.404 229.085 194.451 228.206 194.545C227.339 194.639 226.589 194.738 225.956 194.844C225.23 194.973 224.574 195.113 223.988 195.266L224.339 192.998C224.515 193.021 224.802 193.039 225.2 193.051C225.599 193.062 226.015 193.074 226.449 193.086C226.894 193.086 227.31 193.092 227.697 193.104C228.095 193.104 228.37 193.104 228.523 193.104H236.837C236.978 193.104 237.236 193.104 237.611 193.104C237.997 193.092 238.408 193.086 238.841 193.086C239.275 193.074 239.691 193.062 240.089 193.051C240.488 193.039 240.775 193.021 240.95 192.998L241.302 195.266C240.74 195.113 240.095 194.973 239.368 194.844C238.747 194.738 237.997 194.639 237.118 194.545C236.251 194.451 235.273 194.404 234.183 194.404V204.758C234.183 205.812 234.195 206.732 234.218 207.518C234.241 208.303 234.271 208.982 234.306 209.557C234.353 210.119 234.406 210.594 234.464 210.98C234.523 211.367 234.593 211.684 234.675 211.93V212H230.615V211.93C230.697 211.684 230.767 211.367 230.825 210.98C230.884 210.594 230.937 210.119 230.984 209.557C231.031 208.982 231.066 208.303 231.089 207.518C231.113 206.732 231.124 205.812 231.124 204.758V194.404ZM252.193 200.328C252.193 199.273 252.181 198.359 252.158 197.586C252.134 196.801 252.099 196.127 252.052 195.564C252.017 194.99 251.964 194.51 251.894 194.123C251.835 193.736 251.765 193.42 251.683 193.174V193.104H255.761V193.174C255.679 193.42 255.603 193.736 255.533 194.123C255.474 194.51 255.421 194.99 255.374 195.564C255.339 196.127 255.31 196.801 255.286 197.586C255.263 198.359 255.251 199.273 255.251 200.328V204.758C255.251 205.812 255.263 206.732 255.286 207.518C255.31 208.303 255.339 208.982 255.374 209.557C255.421 210.119 255.474 210.594 255.533 210.98C255.603 211.367 255.679 211.684 255.761 211.93V212H251.683V211.93C251.765 211.684 251.835 211.367 251.894 210.98C251.964 210.594 252.017 210.119 252.052 209.557C252.099 208.982 252.134 208.303 252.158 207.518C252.181 206.732 252.193 205.812 252.193 204.758V200.328Z" fill="white"/>
<path d="M70.8383 234.559C71.6039 234.699 72.3031 234.715 72.9359 234.605C73.5766 234.488 74.1234 234.246 74.5766 233.879C75.0375 233.504 75.393 233 75.643 232.367C75.9008 231.734 76.0297 230.961 76.0297 230.047C76.0297 229.414 75.9633 228.84 75.8305 228.324C75.6977 227.801 75.4984 227.359 75.2328 227C74.975 226.633 74.6469 226.352 74.2484 226.156C73.85 225.953 73.3852 225.852 72.8539 225.852C72.518 225.852 72.225 225.867 71.975 225.898C71.725 225.922 71.5141 225.949 71.3422 225.98C71.1391 226.02 70.9711 226.062 70.8383 226.109V234.559ZM68.3656 225.195C68.5219 225.211 68.6859 225.227 68.8578 225.242C69.0062 225.258 69.1703 225.27 69.35 225.277C69.5375 225.277 69.7289 225.277 69.9242 225.277C70.2289 225.277 70.6391 225.242 71.1547 225.172C71.6781 225.094 72.3422 225.055 73.1469 225.055C73.8969 225.055 74.5883 225.164 75.2211 225.383C75.8617 225.602 76.4164 225.922 76.8852 226.344C77.3539 226.766 77.7172 227.281 77.975 227.891C78.2406 228.492 78.3734 229.18 78.3734 229.953C78.3734 230.992 78.1664 231.891 77.7523 232.648C77.3383 233.406 76.7836 234.02 76.0883 234.488C75.393 234.957 74.5922 235.277 73.6859 235.449C72.7797 235.613 71.8305 235.621 70.8383 235.473V237.418C70.8383 238.082 70.8461 238.664 70.8617 239.164C70.8852 239.656 70.9086 240.082 70.932 240.441C70.9633 240.801 70.9984 241.102 71.0375 241.344C71.0844 241.586 71.1312 241.789 71.1781 241.953V242H68.3656V241.953C68.4125 241.789 68.4555 241.586 68.4945 241.344C68.5414 241.102 68.5805 240.801 68.6117 240.441C68.643 240.082 68.6664 239.656 68.682 239.164C68.6977 238.664 68.7055 238.082 68.7055 237.418V229.789C68.7055 229.125 68.6977 228.547 68.682 228.055C68.6664 227.555 68.643 227.125 68.6117 226.766C68.5805 226.398 68.5414 226.094 68.4945 225.852C68.4555 225.609 68.4125 225.406 68.3656 225.242V225.195ZM89.6961 232.355L89.532 232.379C89.4773 232.199 89.3875 232.008 89.2625 231.805C89.1453 231.602 88.9891 231.414 88.7937 231.242C88.6062 231.07 88.3758 230.93 88.1023 230.82C87.8367 230.703 87.5281 230.645 87.1766 230.645C86.9344 230.645 86.7039 230.68 86.4852 230.75C86.2742 230.82 86.0867 230.926 85.9227 231.066C85.7664 231.199 85.6414 231.367 85.5477 231.57C85.4539 231.773 85.407 232.012 85.407 232.285C85.407 232.668 85.5242 233.035 85.7586 233.387C86.0008 233.73 86.3016 234.074 86.6609 234.418C87.0203 234.754 87.407 235.094 87.8211 235.438C88.243 235.781 88.6336 236.141 88.993 236.516C89.3523 236.891 89.6492 237.293 89.8836 237.723C90.1258 238.145 90.2469 238.602 90.2469 239.094C90.2469 239.492 90.1766 239.883 90.0359 240.266C89.8953 240.641 89.6766 240.977 89.3797 241.273C89.0906 241.57 88.7156 241.812 88.2547 242C87.8016 242.18 87.2586 242.27 86.6258 242.27C86.2508 242.27 85.8992 242.234 85.5711 242.164C85.2508 242.094 84.9539 242.008 84.6805 241.906C84.4148 241.797 84.1727 241.68 83.9539 241.555C83.743 241.422 83.5555 241.297 83.3914 241.18L83.5086 238.953H83.6961C83.7742 239.32 83.8914 239.656 84.0477 239.961C84.2039 240.266 84.3953 240.527 84.6219 240.746C84.8562 240.957 85.1219 241.125 85.4187 241.25C85.7156 241.367 86.0398 241.426 86.3914 241.426C86.9695 241.426 87.4266 241.266 87.7625 240.945C88.1062 240.625 88.2781 240.207 88.2781 239.691C88.2781 239.277 88.1609 238.898 87.9266 238.555C87.7 238.203 87.4109 237.867 87.0594 237.547C86.7078 237.227 86.3289 236.906 85.9227 236.586C85.5242 236.266 85.1492 235.926 84.7977 235.566C84.4461 235.199 84.1531 234.801 83.9187 234.371C83.6922 233.934 83.5789 233.438 83.5789 232.883C83.5789 232.43 83.6609 232.016 83.825 231.641C83.9969 231.258 84.2312 230.934 84.5281 230.668C84.8328 230.395 85.1922 230.184 85.6062 230.035C86.0203 229.887 86.4734 229.812 86.9656 229.812C87.6141 229.812 88.1531 229.883 88.5828 230.023C89.0203 230.156 89.3523 230.285 89.5789 230.41L89.6961 232.355ZM96.5773 234.582C96.5773 233.918 96.5656 233.34 96.5422 232.848C96.5266 232.348 96.5031 231.918 96.4719 231.559C96.4484 231.199 96.4133 230.898 96.3664 230.656C96.3273 230.414 96.2844 230.211 96.2375 230.047V230H98.9445V230.047C98.8977 230.211 98.8547 230.414 98.8156 230.656C98.7766 230.898 98.7414 231.199 98.7102 231.559C98.6789 231.918 98.6555 232.348 98.6398 232.848C98.6242 233.34 98.6164 233.918 98.6164 234.582V237.418C98.6164 238.082 98.6242 238.664 98.6398 239.164C98.6555 239.656 98.6789 240.082 98.7102 240.441C98.7414 240.801 98.7766 241.102 98.8156 241.344C98.8547 241.586 98.8977 241.789 98.9445 241.953V242H96.2375V241.953C96.2844 241.789 96.3273 241.586 96.3664 241.344C96.4133 241.102 96.4484 240.801 96.4719 240.441C96.5031 240.082 96.5266 239.656 96.5422 239.164C96.5656 238.664 96.5773 238.082 96.5773 237.418V234.582ZM96.3313 226.449C96.3313 226.277 96.3625 226.117 96.425 225.969C96.4953 225.812 96.5852 225.68 96.6945 225.57C96.8039 225.453 96.9328 225.363 97.0813 225.301C97.2375 225.23 97.4055 225.195 97.5852 225.195C97.7648 225.195 97.9289 225.23 98.0773 225.301C98.2336 225.363 98.3664 225.453 98.4758 225.57C98.593 225.68 98.6828 225.812 98.7453 225.969C98.8156 226.117 98.8508 226.277 98.8508 226.449C98.8508 226.809 98.7297 227.109 98.4875 227.352C98.2453 227.594 97.9445 227.715 97.5852 227.715C97.4055 227.715 97.2375 227.684 97.0813 227.621C96.9328 227.551 96.8039 227.461 96.6945 227.352C96.5852 227.234 96.4953 227.102 96.425 226.953C96.3625 226.797 96.3313 226.629 96.3313 226.449ZM115.634 239.504L114.767 241.59C114.556 241.684 114.314 241.77 114.041 241.848C113.767 241.926 113.482 241.992 113.185 242.047C112.896 242.102 112.603 242.141 112.306 242.164C112.009 242.195 111.728 242.211 111.462 242.211C110.517 242.211 109.642 242.074 108.837 241.801C108.041 241.52 107.349 241.113 106.763 240.582C106.185 240.051 105.732 239.398 105.404 238.625C105.076 237.852 104.912 236.969 104.912 235.977C104.912 235.094 105.08 234.277 105.416 233.527C105.759 232.77 106.232 232.113 106.834 231.559C107.443 231.004 108.158 230.57 108.978 230.258C109.798 229.945 110.689 229.789 111.65 229.789C112.087 229.789 112.556 229.828 113.056 229.906C113.556 229.977 114.002 230.07 114.392 230.188L115.224 232.18L115.084 232.262C114.888 232.02 114.654 231.801 114.38 231.605C114.115 231.402 113.818 231.23 113.49 231.09C113.17 230.949 112.83 230.84 112.47 230.762C112.111 230.684 111.744 230.645 111.369 230.645C110.759 230.645 110.205 230.754 109.705 230.973C109.205 231.184 108.775 231.492 108.416 231.898C108.056 232.305 107.775 232.805 107.572 233.398C107.377 233.984 107.279 234.652 107.279 235.402C107.279 236.246 107.373 237.031 107.56 237.758C107.755 238.484 108.041 239.117 108.416 239.656C108.798 240.188 109.275 240.605 109.845 240.91C110.423 241.207 111.099 241.355 111.873 241.355C112.232 241.355 112.587 241.312 112.939 241.227C113.298 241.133 113.634 241.004 113.947 240.84C114.267 240.668 114.56 240.465 114.826 240.23C115.091 239.996 115.314 239.73 115.494 239.434L115.634 239.504ZM120.629 235.977C120.629 235.094 120.793 234.277 121.121 233.527C121.449 232.77 121.898 232.113 122.469 231.559C123.047 231.004 123.727 230.57 124.508 230.258C125.289 229.945 126.129 229.789 127.027 229.789C127.91 229.789 128.738 229.938 129.512 230.234C130.293 230.523 130.973 230.938 131.551 231.477C132.129 232.016 132.582 232.672 132.91 233.445C133.246 234.219 133.414 235.086 133.414 236.047C133.414 236.852 133.273 237.625 132.992 238.367C132.711 239.109 132.297 239.766 131.75 240.336C131.203 240.906 130.531 241.363 129.734 241.707C128.945 242.043 128.035 242.211 127.004 242.211C126.129 242.211 125.305 242.066 124.531 241.777C123.758 241.488 123.082 241.074 122.504 240.535C121.926 239.996 121.469 239.344 121.133 238.578C120.797 237.805 120.629 236.938 120.629 235.977ZM127.273 241.355C127.828 241.355 128.336 241.246 128.797 241.027C129.266 240.809 129.668 240.492 130.004 240.078C130.34 239.664 130.602 239.16 130.789 238.566C130.977 237.973 131.07 237.301 131.07 236.551C131.07 235.707 130.98 234.926 130.801 234.207C130.621 233.48 130.352 232.855 129.992 232.332C129.641 231.801 129.195 231.387 128.656 231.09C128.117 230.793 127.488 230.645 126.77 230.645C126.215 230.645 125.707 230.754 125.246 230.973C124.785 231.184 124.383 231.492 124.039 231.898C123.703 232.305 123.441 232.805 123.254 233.398C123.066 233.984 122.973 234.652 122.973 235.402C122.973 236.246 123.062 237.031 123.242 237.758C123.43 238.484 123.703 239.117 124.062 239.656C124.422 240.188 124.867 240.605 125.398 240.91C125.938 241.207 126.562 241.355 127.273 241.355ZM129.711 226.52C129.133 226.715 128.547 226.922 127.953 227.141C127.695 227.234 127.426 227.336 127.145 227.445C126.863 227.555 126.578 227.672 126.289 227.797C126 227.922 125.707 228.051 125.41 228.184C125.121 228.309 124.844 228.441 124.578 228.582L124.32 228.148C124.828 227.812 125.332 227.445 125.832 227.047C126.34 226.648 126.805 226.273 127.227 225.922C127.711 225.516 128.18 225.105 128.633 224.691L129.711 226.52ZM139.721 229.062C139.721 228.398 139.709 227.82 139.686 227.328C139.67 226.828 139.647 226.398 139.616 226.039C139.592 225.68 139.557 225.379 139.51 225.137C139.471 224.895 139.428 224.691 139.381 224.527V224.48H142.088V224.527C142.041 224.691 141.998 224.895 141.959 225.137C141.92 225.379 141.885 225.68 141.854 226.039C141.823 226.398 141.799 226.828 141.784 227.328C141.768 227.82 141.76 228.398 141.76 229.062V237.418C141.76 238.082 141.768 238.664 141.784 239.164C141.799 239.656 141.823 240.082 141.854 240.441C141.885 240.801 141.92 241.102 141.959 241.344C141.998 241.586 142.041 241.789 142.088 241.953V242H139.381V241.953C139.428 241.789 139.471 241.586 139.51 241.344C139.557 241.102 139.592 240.801 139.616 240.441C139.647 240.082 139.67 239.656 139.686 239.164C139.709 238.664 139.721 238.082 139.721 237.418V229.062ZM148.055 235.977C148.055 235.094 148.22 234.277 148.548 233.527C148.876 232.77 149.325 232.113 149.895 231.559C150.473 231.004 151.153 230.57 151.934 230.258C152.716 229.945 153.555 229.789 154.454 229.789C155.337 229.789 156.165 229.938 156.938 230.234C157.72 230.523 158.399 230.938 158.977 231.477C159.555 232.016 160.009 232.672 160.337 233.445C160.673 234.219 160.841 235.086 160.841 236.047C160.841 236.852 160.7 237.625 160.419 238.367C160.137 239.109 159.723 239.766 159.177 240.336C158.63 240.906 157.958 241.363 157.161 241.707C156.372 242.043 155.462 242.211 154.43 242.211C153.555 242.211 152.731 242.066 151.958 241.777C151.184 241.488 150.509 241.074 149.93 240.535C149.352 239.996 148.895 239.344 148.559 238.578C148.223 237.805 148.055 236.938 148.055 235.977ZM154.7 241.355C155.255 241.355 155.762 241.246 156.223 241.027C156.692 240.809 157.095 240.492 157.43 240.078C157.766 239.664 158.028 239.16 158.216 238.566C158.403 237.973 158.497 237.301 158.497 236.551C158.497 235.707 158.407 234.926 158.227 234.207C158.048 233.48 157.778 232.855 157.419 232.332C157.067 231.801 156.622 231.387 156.083 231.09C155.544 230.793 154.915 230.645 154.196 230.645C153.641 230.645 153.134 230.754 152.673 230.973C152.212 231.184 151.809 231.492 151.466 231.898C151.13 232.305 150.868 232.805 150.68 233.398C150.493 233.984 150.399 234.652 150.399 235.402C150.399 236.246 150.489 237.031 150.669 237.758C150.856 238.484 151.13 239.117 151.489 239.656C151.848 240.188 152.294 240.605 152.825 240.91C153.364 241.207 153.989 241.355 154.7 241.355ZM171.612 247.355C172.245 247.355 172.78 247.285 173.218 247.145C173.655 247.012 174.015 246.824 174.296 246.582C174.585 246.34 174.804 246.047 174.952 245.703C175.109 245.367 175.222 244.996 175.292 244.59C175.37 244.184 175.413 243.75 175.421 243.289C175.437 242.828 175.445 242.352 175.445 241.859V241.473C175.062 241.676 174.601 241.852 174.062 242C173.523 242.141 172.913 242.211 172.234 242.211C171.304 242.211 170.46 242.066 169.702 241.777C168.945 241.488 168.296 241.074 167.757 240.535C167.226 239.996 166.816 239.344 166.527 238.578C166.237 237.805 166.093 236.938 166.093 235.977C166.093 235.094 166.234 234.273 166.515 233.516C166.804 232.758 167.206 232.102 167.722 231.547C168.245 230.992 168.866 230.559 169.585 230.246C170.312 229.926 171.112 229.766 171.987 229.766C172.362 229.766 172.706 229.797 173.019 229.859C173.331 229.922 173.62 230.008 173.886 230.117C174.159 230.219 174.413 230.34 174.648 230.48C174.89 230.613 175.124 230.758 175.351 230.914L175.234 230.047V230H177.823V230.047C177.777 230.211 177.73 230.414 177.683 230.656C177.644 230.898 177.609 231.199 177.577 231.559C177.554 231.918 177.53 232.348 177.507 232.848C177.491 233.34 177.484 233.918 177.484 234.582V242.551C177.484 243.27 177.386 243.969 177.191 244.648C177.003 245.336 176.679 245.945 176.218 246.477C175.765 247.008 175.163 247.434 174.413 247.754C173.663 248.074 172.73 248.234 171.612 248.234C171.222 248.234 170.827 248.195 170.429 248.117C170.03 248.047 169.652 247.957 169.292 247.848C168.933 247.746 168.609 247.633 168.32 247.508C168.03 247.383 167.8 247.273 167.628 247.18L167.265 244.93L167.452 244.883C167.64 245.289 167.894 245.645 168.214 245.949C168.542 246.262 168.898 246.52 169.28 246.723C169.663 246.934 170.058 247.09 170.464 247.191C170.878 247.301 171.261 247.355 171.612 247.355ZM172.761 241.355C173.323 241.355 173.831 241.262 174.284 241.074C174.745 240.887 175.132 240.668 175.445 240.418V234.582C175.445 234.145 175.441 233.75 175.433 233.398C175.425 233.039 175.421 232.715 175.421 232.426C175.234 232.137 175.015 231.883 174.765 231.664C174.523 231.438 174.261 231.25 173.98 231.102C173.706 230.945 173.425 230.828 173.136 230.75C172.847 230.664 172.562 230.621 172.28 230.621C171.687 230.621 171.152 230.73 170.675 230.949C170.198 231.168 169.792 231.484 169.456 231.898C169.128 232.305 168.874 232.805 168.695 233.398C168.523 233.984 168.437 234.652 168.437 235.402C168.437 236.246 168.53 237.031 168.718 237.758C168.905 238.484 169.179 239.117 169.538 239.656C169.905 240.188 170.359 240.605 170.898 240.91C171.437 241.207 172.058 241.355 172.761 241.355ZM183.755 238.543C183.755 237.926 183.88 237.391 184.13 236.938C184.388 236.484 184.728 236.098 185.15 235.777C185.572 235.457 186.052 235.199 186.591 235.004C187.13 234.801 187.689 234.645 188.267 234.535C188.845 234.418 189.416 234.34 189.978 234.301C190.541 234.254 191.056 234.227 191.525 234.219V233.621C191.525 233.105 191.459 232.66 191.326 232.285C191.193 231.91 191.005 231.602 190.763 231.359C190.521 231.109 190.228 230.926 189.884 230.809C189.548 230.684 189.177 230.621 188.771 230.621C188.49 230.621 188.212 230.645 187.939 230.691C187.666 230.738 187.38 230.816 187.084 230.926C186.795 231.035 186.486 231.184 186.158 231.371C185.837 231.559 185.49 231.797 185.115 232.086L184.998 232.016L185.795 230.363C186.052 230.246 186.306 230.152 186.556 230.082C186.806 230.004 187.06 229.941 187.318 229.895C187.576 229.848 187.837 229.816 188.103 229.801C188.377 229.777 188.662 229.766 188.959 229.766C189.779 229.766 190.478 229.867 191.056 230.07C191.642 230.266 192.119 230.539 192.486 230.891C192.861 231.234 193.134 231.641 193.306 232.109C193.478 232.57 193.564 233.066 193.564 233.598V237.418C193.564 238.082 193.572 238.664 193.587 239.164C193.611 239.656 193.634 240.082 193.658 240.441C193.689 240.801 193.724 241.102 193.763 241.344C193.81 241.586 193.857 241.789 193.904 241.953V242H191.314V241.953C191.353 241.828 191.38 241.688 191.396 241.531C191.42 241.375 191.439 241.188 191.455 240.969C191.291 241.109 191.095 241.254 190.869 241.402C190.65 241.551 190.396 241.688 190.107 241.812C189.826 241.93 189.509 242.023 189.158 242.094C188.814 242.172 188.435 242.211 188.021 242.211C186.662 242.211 185.611 241.895 184.869 241.262C184.127 240.621 183.755 239.715 183.755 238.543ZM191.525 235.133C190.814 235.141 190.13 235.184 189.474 235.262C188.818 235.332 188.236 235.484 187.728 235.719C187.228 235.953 186.826 236.289 186.521 236.727C186.224 237.156 186.076 237.73 186.076 238.449C186.076 239.371 186.306 240.074 186.767 240.559C187.228 241.043 187.865 241.285 188.677 241.285C189.052 241.285 189.392 241.234 189.697 241.133C190.009 241.023 190.283 240.891 190.517 240.734C190.759 240.57 190.962 240.395 191.127 240.207C191.291 240.012 191.416 239.824 191.502 239.645C191.517 239.348 191.525 239.02 191.525 238.66C191.525 238.293 191.525 237.879 191.525 237.418V235.133Z" fill="#F2A8BF"/>
</svg>
